# xmcd
#
# Track frame offsets:
#   150
#   17418
#   34603
#   50760
#   71153
#   86548
#   107516
#   123790
#   143062
#   157552
#   174422
#   194324
#   209272
#   224359
#   240821
#   255335
#   272302
#   290234
#   304699
#   320648
#
# Disc length: 4483 seconds
#
# Revision: 0
# Processed by: cddbd v1.5.2PL0 Copyright (c) Steve Scherf et al.
# Submitted via: uFREEDB ActiveX Control 1.5
#
DISCID=0a118114
DTITLE=Eduardo Costa - As 20 Mais
DYEAR=2007
DGENRE=Country
TTITLE0=Linda Demais
TTITLE1=Imperfeito
TTITLE2=Entre Ele e Eu
TTITLE3=Coração Aberto
TTITLE4=Pagina de Amigos
TTITLE5=Me Esqueça
TTITLE6=Eu Quero Esse Amor
TTITLE7=Amor de Violeiro
TTITLE8=Voce Só Me Faz Feliz
TTITLE9=Ima
TTITLE10=Rasgando a Madrugada
TTITLE11=Voce Decide
TTITLE12=Diz Pro Meu Olhar
TTITLE13=Fera Machucada
TTITLE14=Nós Bares da Cidade
TTITLE15=Acabou o Amor
TTITLE16=Eu e a Solidão
TTITLE17=To Indo Embora
TTITLE18=Eu Duvido
TTITLE19=Não Acredito
EXTD=
EXTT0=
EXTT1=
EXTT2=
EXTT3=
EXTT4=
EXTT5=
EXTT6=
EXTT7=
EXTT8=
EXTT9=
EXTT10=
EXTT11=
EXTT12=
EXTT13=
EXTT14=
EXTT15=
EXTT16=
EXTT17=
EXTT18=
EXTT19=
PLAYORDER=
